<svg width="82" height="16" viewBox="0 0 82 16" fill="none" xmlns="http://www.w3.org/2000/svg">
<path d="M7.046 6.574C7.718 6.694 8.288 7.048 8.756 7.636C9.224 8.224 9.458 8.89 9.458 9.634C9.458 10.27 9.29 10.846 8.954 11.362C8.63 11.866 8.156 12.268 7.532 12.568C6.908 12.856 6.182 13 5.354 13H0.35V0.489999H5.12C5.972 0.489999 6.704 0.633999 7.316 0.922C7.928 1.21 8.39 1.6 8.702 2.092C9.014 2.572 9.17 3.112 9.17 3.712C9.17 4.432 8.978 5.032 8.594 5.512C8.21 5.992 7.694 6.346 7.046 6.574ZM2.402 5.746H4.94C5.612 5.746 6.134 5.596 6.506 5.296C6.89 4.984 7.082 4.54 7.082 3.964C7.082 3.4 6.89 2.962 6.506 2.65C6.134 2.326 5.612 2.164 4.94 2.164H2.402V5.746ZM5.174 11.326C5.87 11.326 6.416 11.158 6.812 10.822C7.208 10.486 7.406 10.018 7.406 9.418C7.406 8.806 7.196 8.32 6.776 7.96C6.356 7.6 5.798 7.42 5.102 7.42H2.402V11.326H5.174ZM13.7399 11.344H17.9699V13H11.6879V0.489999H13.7399V11.344ZM25.3919 13.126C24.2279 13.126 23.1539 12.856 22.1699 12.316C21.1979 11.764 20.4239 11.002 19.8479 10.03C19.2839 9.046 19.0019 7.942 19.0019 6.718C19.0019 5.494 19.2839 4.396 19.8479 3.424C20.4239 2.452 21.1979 1.696 22.1699 1.156C23.1539 0.603999 24.2279 0.327999 25.3919 0.327999C26.5679 0.327999 27.6419 0.603999 28.6139 1.156C29.5979 1.696 30.3719 2.452 30.9359 3.424C31.4999 4.396 31.7819 5.494 31.7819 6.718C31.7819 7.942 31.4999 9.046 30.9359 10.03C30.3719 11.002 29.5979 11.764 28.6139 12.316C27.6419 12.856 26.5679 13.126 25.3919 13.126ZM25.3919 11.344C26.2199 11.344 26.9579 11.158 27.6059 10.786C28.2539 10.402 28.7579 9.862 29.1179 9.166C29.4899 8.458 29.6759 7.642 29.6759 6.718C29.6759 5.794 29.4899 4.984 29.1179 4.288C28.7579 3.592 28.2539 3.058 27.6059 2.686C26.9579 2.314 26.2199 2.128 25.3919 2.128C24.5639 2.128 23.8259 2.314 23.1779 2.686C22.5299 3.058 22.0199 3.592 21.6479 4.288C21.2879 4.984 21.1079 5.794 21.1079 6.718C21.1079 7.642 21.2879 8.458 21.6479 9.166C22.0199 9.862 22.5299 10.402 23.1779 10.786C23.8259 11.158 24.5639 11.344 25.3919 11.344ZM33.1172 6.718C33.1172 5.494 33.3992 4.396 33.9632 3.424C34.5392 2.452 35.3132 1.696 36.2852 1.156C37.2692 0.603999 38.3432 0.327999 39.5072 0.327999C40.8392 0.327999 42.0212 0.657999 43.0532 1.318C44.0972 1.966 44.8532 2.89 45.3212 4.09H42.8552C42.5312 3.43 42.0812 2.938 41.5052 2.614C40.9292 2.29 40.2632 2.128 39.5072 2.128C38.6792 2.128 37.9412 2.314 37.2932 2.686C36.6452 3.058 36.1352 3.592 35.7632 4.288C35.4032 4.984 35.2232 5.794 35.2232 6.718C35.2232 7.642 35.4032 8.452 35.7632 9.148C36.1352 9.844 36.6452 10.384 37.2932 10.768C37.9412 11.14 38.6792 11.326 39.5072 11.326C40.2632 11.326 40.9292 11.164 41.5052 10.84C42.0812 10.516 42.5312 10.024 42.8552 9.364H45.3212C44.8532 10.564 44.0972 11.488 43.0532 12.136C42.0212 12.784 40.8392 13.108 39.5072 13.108C38.3312 13.108 37.2572 12.838 36.2852 12.298C35.3132 11.746 34.5392 10.984 33.9632 10.012C33.3992 9.04 33.1172 7.942 33.1172 6.718ZM54.617 13L49.775 7.402V13H47.723V0.489999H49.775V6.196L54.635 0.489999H57.209L51.773 6.754L57.299 13H54.617ZM66.7277 5.62V7.348H59.3297V5.62H66.7277ZM79.327 15.268L77.131 12.892C76.591 13.048 75.997 13.126 75.349 13.126C74.185 13.126 73.111 12.856 72.127 12.316C71.155 11.764 70.381 11.002 69.805 10.03C69.241 9.046 68.959 7.942 68.959 6.718C68.959 5.494 69.241 4.396 69.805 3.424C70.381 2.452 71.155 1.696 72.127 1.156C73.111 0.603999 74.185 0.327999 75.349 0.327999C76.525 0.327999 77.599 0.603999 78.571 1.156C79.555 1.696 80.329 2.452 80.893 3.424C81.457 4.396 81.739 5.494 81.739 6.718C81.739 7.87 81.487 8.914 80.983 9.85C80.491 10.774 79.807 11.518 78.931 12.082L81.937 15.268H79.327ZM71.065 6.718C71.065 7.642 71.245 8.458 71.605 9.166C71.977 9.862 72.487 10.402 73.135 10.786C73.783 11.158 74.521 11.344 75.349 11.344C76.177 11.344 76.915 11.158 77.563 10.786C78.211 10.402 78.715 9.862 79.075 9.166C79.447 8.458 79.633 7.642 79.633 6.718C79.633 5.794 79.447 4.984 79.075 4.288C78.715 3.592 78.211 3.058 77.563 2.686C76.915 2.314 76.177 2.128 75.349 2.128C74.521 2.128 73.783 2.314 73.135 2.686C72.487 3.058 71.977 3.592 71.605 4.288C71.245 4.984 71.065 5.794 71.065 6.718Z" fill="black"/>
</svg>
